<?xml version="1.0" standalone="no"?>
<!DOCTYPE svg PUBLIC "-//W3C//DTD SVG 20010904//EN"
 "http://www.w3.org/TR/2001/REC-SVG-20010904/DTD/svg10.dtd">
<svg version="1.0" xmlns="http://www.w3.org/2000/svg"
 width="400.000000pt" height="115.000000pt" viewBox="0 0 400.000000 115.000000"
 preserveAspectRatio="xMidYMid meet">
<metadata>
Created by potrace 1.15, written by Peter Selinger 2001-2017
</metadata>
<g transform="translate(0.000000,115.000000) scale(0.100000,-0.100000)"
fill="#000000" stroke="none">
<path d="M2443 716 c-43 -19 -53 -43 -53 -126 0 -66 2 -74 29 -101 53 -53 159
-24 161 44 0 26 -35 21 -54 -8 -18 -27 -54 -33 -74 -13 -7 7 -12 41 -12 83 0
42 5 76 12 83 20 20 56 14 74 -13 18 -27 54 -34 54 -11 0 24 -43 64 -75 70
-16 3 -44 -1 -62 -8z"/>
<path d="M2855 719 c-37 -11 -55 -34 -55 -71 0 -37 29 -60 88 -73 49 -11 65
-33 42 -60 -15 -18 -63 -19 -90 -3 -16 10 -22 10 -32 0 -11 -11 -9 -17 11 -33
48 -39 149 -15 163 39 9 33 -18 81 -49 87 -67 14 -78 20 -81 47 -3 22 2 29 23
34 15 4 37 1 51 -7 19 -10 27 -10 36 -1 28 28 -49 57 -107 41z"/>
<path d="M230 590 l0 -130 25 0 c24 0 25 3 25 55 0 48 2 55 20 55 15 0 28 -16
47 -55 21 -43 32 -55 50 -55 29 0 28 13 -1 69 l-23 43 24 24 c29 29 30 77 3
104 -16 16 -33 20 -95 20 l-75 0 0 -130z"/>
<path d="M569 707 c-28 -22 -39 -55 -39 -122 0 -60 3 -69 29 -96 34 -33 91
-40 128 -14 48 34 55 176 11 223 -16 17 -32 22 -67 22 -25 0 -53 -6 -62 -13z
m95 -39 c18 -26 22 -119 6 -149 -12 -22 -59 -26 -78 -7 -19 19 -15 138 5 160
22 24 49 23 67 -4z"/>
<path d="M760 590 l0 -130 25 0 c24 0 25 3 25 55 l0 55 50 0 c38 0 54 5 70 22
26 28 26 68 -1 102 -19 24 -26 26 -95 26 l-74 0 0 -130z"/>
<path d="M970 598 c-25 -67 -46 -125 -48 -130 -2 -4 8 -8 21 -8 19 0 28 8 36
30 9 27 14 30 56 30 42 0 47 -3 56 -30 8 -22 17 -30 35 -30 l23 0 -40 113
c-23 61 -43 120 -46 130 -3 9 -15 17 -27 17 -19 0 -28 -17 -66 -122z"/>
<path d="M1250 590 l0 -130 104 0 104 0 7 30 c6 28 9 30 55 30 44 0 49 -2 59
-30 7 -20 17 -30 30 -30 12 0 21 6 21 13 -1 6 -20 64 -44 127 -33 91 -47 116
-63 118 -18 3 -26 -12 -60 -105 l-40 -108 -61 -3 -62 -3 0 111 0 110 -25 0
-25 0 0 -130z"/>
<path d="M2665 708 c-2 -7 -22 -62 -45 -122 -22 -60 -40 -113 -40 -117 0 -5
11 -9 24 -9 19 0 26 7 31 30 6 28 9 30 56 30 47 0 50 -2 56 -30 4 -23 11 -30
29 -30 13 0 24 6 23 13 0 6 -19 64 -43 127 -35 94 -47 116 -64 118 -12 2 -24
-3 -27 -10z"/>
<path d="M2990 705 c0 -10 11 -15 35 -15 l35 0 0 -115 0 -115 25 0 25 0 0 115
0 115 35 0 c24 0 35 5 35 15 0 12 -17 15 -95 15 -78 0 -95 -3 -95 -15z"/>
<path d="M3290 590 l0 -130 85 0 c78 0 85 2 85 20 0 18 -7 20 -65 20 l-65 0 0
110 c0 103 -1 110 -20 110 -19 0 -20 -7 -20 -130z"/>
<path d="M3480 590 l0 -130 104 0 104 0 7 30 c6 28 9 30 55 30 46 0 49 -2 55
-30 5 -23 12 -30 31 -30 13 0 24 6 23 13 0 6 -19 64 -43 127 -38 103 -45 115
-67 115 -21 0 -28 -12 -64 -110 l-40 -110 -62 3 -63 3 0 109 c0 103 -1 110
-20 110 -19 0 -20 -7 -20 -130z"/>
</g>
</svg>
